# ProBuilder 5.2.3
# https://unity3d.com/unity/features/worldbuilding/probuilder
# 29/10/2024 02:59:05 p. m.

mtllib ./Flag.mtl
o Flag

g Cylinder
v 8.000001 0.1293859 -0.4829639
v 8.000001 -2.145767E-05 -4.768372E-07
v 8.000001 -0.1294332 -0.4829631
v -2 0.1294132 -0.4829633
v -2 5.364418E-06 1.192093E-07
v -2.000001 -0.1294059 -0.4829625
v 8 -0.3535757 -0.3535528
v -2.000001 -0.3535492 -0.3535522
v 8 -0.4829845 -0.1294085
v -2.000002 -0.482958 -0.1294079
v 8 -0.4829841 0.1294106
v -2.000002 -0.4829571 0.1294112
v 8 -0.3535738 0.3535541
v -2.000001 -0.3535469 0.3535547
v 8.000001 -0.1294293 0.4829629
v -2.000001 -0.1294024 0.4829635
v 8.000001 0.1293893 0.4829621
v -2 0.1294166 0.4829627
v 8.000002 0.3535328 0.3535518
v -1.999999 0.35356 0.3535524
v 8.000002 0.4829421 0.1294076
v -1.999999 0.4829688 0.1294082
v 8.000002 0.4829416 -0.1294115
v -1.999999 0.482968 -0.1294109
v 8.000002 0.3535309 -0.353555
v -1.999999 0.3535576 -0.3535544
v -1.5 0.1294125 -0.4829606
v -1.500001 -0.129407 -0.4829597
v -1.500001 -0.3535507 -0.3535502
v -1.500002 -0.4829596 -0.1294058
v -1.500002 -0.4829589 0.1294138
v -1.500001 -0.3535483 0.3535574
v -1.500001 -0.1294039 0.4829656
v -1.5 0.1294156 0.4829648
v -1.499999 0.3535593 0.3535552
v -1.499999 0.4829682 0.1294109
v -1.499999 0.4829675 -0.1294088
v -1.499999 0.3535569 -0.3535524
v 1.500001 0.1294044 -0.4829617
v 1.5 -0.1294152 -0.4829609
v 1.499999 -0.3535588 -0.3535513
v 1.499999 -0.4829677 -0.1294069
v 1.499999 -0.482967 0.1294127
v 0.1338054 -3.500001 -0.1293917
v -0.133826 -3.5 -0.1293907
v -0.133826 -3.499999 0.1294289
v 0.1338054 -3.5 0.1294279
v 1.499999 -0.3535564 0.3535563
v 1.5 -0.1294121 0.4829645
v 1.500001 0.1294075 0.4829637
v 1.500001 0.3535511 0.3535541
v 1.500002 0.4829601 0.1294097
v 1.500002 0.4829594 -0.1294099
v 1.500001 0.3535488 -0.3535536

vt -0.5 0
vt 0 0
vt -0.4330127 0.25
vt 0.5 0
vt 0.4330127 0.25
vt -0.25 0.4330127
vt 0.25 0.4330127
vt 0 0.5
vt 0.4330127 -0.25
vt -0.4330127 -0.25
vt 0.2499999 -0.4330127
vt -0.2499999 -0.4330127
vt 0 -0.5
vt -0.12941 0.4500079
vt -0.1294095 0.5000079
vt 0.1294096 0.5000079
vt 0.1294096 0.4500079
vt -0.1294074 0.449998
vt -0.1294095 0.499998
vt 0.1294096 0.499998
vt 0.1294122 0.449998
vt 0.1294096 -0.4999922
vt -0.1294095 -0.4999922
vt -0.12941 0.1500078
vt 0.1294096 0.1500078
vt 0.1294096 -0.500002
vt -0.1294095 -0.500002
vt -0.1294083 0.149998
vt 0.1294113 0.149998
vt -0.1294041 0.2866166
vt -0.1294031 0.3133797
vt 0.1294165 0.3133797
vt 0.1294156 0.2866166
vt -0.4829636 0.4500004
vt -0.4829637 0.1500004
vt -3.5 0.313382
vt -3.5 0.2866189
vt 0.005271441 0.4798611
vt -0.2447119 0.4128097
vt -0.7771478 3.396879
vt -1.027131 3.329828
vt 0.2517425 0.4390249
vt 0.001759111 0.5060763
vt 1.034162 3.356043
vt 0.7841784 3.423095
vt 0.4829631 0.1499996
vt 0.4829631 0.4499996
vt 3.5 0.2866181
vt 3.5 0.3133812

vn 1 0 0
vn -1 3.224125E-06 1.234034E-07
vn 2.824186E-06 0.2588152 -0.9659269
vn 4.622117E-06 -0.2588223 -0.9659249
vn 1.107098E-06 -0.7071086 -0.7071049
vn -2.190545E-06 -0.9659266 -0.2588159
vn -2.232328E-06 -0.9390718 -0.343721
vn -4.796565E-06 -0.965925 0.2588222
vn -3.803521E-06 -0.9390695 0.3437272
vn -5.772611E-06 -0.707104 0.7071096
vn -4.889918E-06 -0.2588159 0.9659266
vn -3.960984E-06 0.2588216 0.9659251
vn -3.034556E-06 0.7071092 0.7071044
vn -2.374767E-07 0.9659266 0.2588161
vn 2.123376E-06 0.9659249 -0.2588223
vn 4.111797E-06 0.707104 -0.7071095
vn -2.672528E-06 -1 3.684707E-06
vn 3.675759E-07 5.164713E-06 1
vn -0.9109577 -0.4124998 1.139955E-06
vn 0.9109553 -0.4125051 1.13997E-06
vn -3.775092E-07 -4.886601E-06 -1

usemtl ProBuilderDefault
f 1/1/1 2/2/1 3/3/1
f 3/3/1 2/2/1 7/6/1
f 7/6/1 2/2/1 9/8/1
f 9/8/1 2/2/1 11/7/1
f 11/7/1 2/2/1 13/5/1
f 13/5/1 2/2/1 15/4/1
f 15/4/1 2/2/1 17/9/1
f 17/9/1 2/2/1 19/11/1
f 19/11/1 2/2/1 21/13/1
f 21/13/1 2/2/1 23/12/1
f 23/12/1 2/2/1 25/10/1
f 25/10/1 2/2/1 1/1/1
f 6/5/2 5/2/2 4/4/2
f 8/7/2 5/2/2 6/5/2
f 10/8/2 5/2/2 8/7/2
f 12/6/2 5/2/2 10/8/2
f 14/3/2 5/2/2 12/6/2
f 16/1/2 5/2/2 14/3/2
f 18/10/2 5/2/2 16/1/2
f 20/12/2 5/2/2 18/10/2
f 22/13/2 5/2/2 20/12/2
f 24/11/2 5/2/2 22/13/2
f 26/9/2 5/2/2 24/11/2
f 4/4/2 5/2/2 26/9/2
f 4/15/3 27/14/3 28/17/4
f 28/17/4 6/16/4 4/15/3
f 6/15/4 28/14/4 29/17/5
f 29/17/5 8/16/5 6/15/4
f 8/15/5 29/14/5 30/17/7
f 30/17/7 10/16/6 8/15/5
f 10/19/6 30/18/7 31/21/9
f 31/21/9 12/20/8 10/19/6
f 12/19/8 31/18/9 32/21/10
f 32/21/10 14/20/10 12/19/8
f 33/21/11 16/20/11 14/19/10
f 14/19/10 32/18/10 33/21/11
f 18/20/12 16/19/11 33/18/11
f 33/18/11 34/21/12 18/20/12
f 35/21/13 20/20/13 18/19/12
f 18/19/12 34/18/12 35/21/13
f 22/20/14 20/19/13 35/18/13
f 35/18/13 36/21/14 22/20/14
f 24/20/15 22/19/14 36/18/14
f 36/18/14 37/21/15 24/20/15
f 38/17/16 26/16/16 24/15/15
f 24/15/15 37/14/15 38/17/16
f 26/15/16 38/14/16 27/17/3
f 27/17/3 4/16/3 26/15/16
f 1/23/3 3/22/4 40/25/4
f 40/25/4 39/24/3 1/23/3
f 39/24/3 40/25/4 28/17/4
f 28/17/4 27/14/3 39/24/3
f 3/23/4 7/22/5 41/25/5
f 41/25/5 40/24/4 3/23/4
f 40/24/4 41/25/5 29/17/5
f 29/17/5 28/14/4 40/24/4
f 7/23/5 9/22/6 42/25/7
f 42/25/7 41/24/5 7/23/5
f 41/24/5 42/25/7 30/17/7
f 30/17/7 29/14/5 41/24/5
f 9/27/6 11/26/8 43/29/9
f 43/29/9 42/28/7 9/27/6
f 44/30/17 47/33/17 46/32/17
f 46/32/17 45/31/17 44/30/17
f 11/27/8 13/26/10 48/29/10
f 48/29/10 43/28/9 11/27/8
f 43/28/9 48/29/10 32/21/10
f 32/21/10 31/18/9 43/28/9
f 48/28/10 49/29/11 33/21/11
f 33/21/11 32/18/10 48/28/10
f 13/27/10 15/26/11 49/29/11
f 49/29/11 48/28/10 13/27/10
f 15/27/11 17/26/12 50/29/12
f 50/29/12 49/28/11 15/27/11
f 49/28/11 50/29/12 34/21/12
f 34/21/12 33/18/11 49/28/11
f 50/28/12 51/29/13 35/21/13
f 35/21/13 34/18/12 50/28/12
f 17/27/12 19/26/13 51/29/13
f 51/29/13 50/28/12 17/27/12
f 19/27/13 21/26/14 52/29/14
f 52/29/14 51/28/13 19/27/13
f 51/28/13 52/29/14 36/21/14
f 36/21/14 35/18/13 51/28/13
f 21/27/14 23/26/15 53/29/15
f 53/29/15 52/28/14 21/27/14
f 52/28/14 53/29/15 37/21/15
f 37/21/15 36/18/14 52/28/14
f 37/14/15 53/24/15 54/25/16
f 54/25/16 38/17/16 37/14/15
f 23/23/15 25/22/16 54/25/16
f 54/25/16 53/24/15 23/23/15
f 54/24/16 25/23/16 1/22/3
f 1/22/3 39/25/3 54/24/16
f 38/14/16 54/24/16 39/25/3
f 39/25/3 27/17/3 38/14/16
f 47/37/18 43/35/18 31/34/18
f 31/34/18 46/36/18 47/37/18
f 46/41/19 31/39/19 30/38/19
f 30/38/19 45/40/19 46/41/19
f 44/45/20 42/43/20 43/42/20
f 43/42/20 47/44/20 44/45/20
f 45/49/21 30/47/21 42/46/21
f 42/46/21 44/48/21 45/49/21

